P2
3 2
65535
0
13107
26214
65535
52428
39321
