P2
3 2
255
0
51
102
255
204
153
