P3
3 2
65535
65535
0
0
0
65535
0
0
0
65535
0
65535
65535
65535
0
65535
65535
65535
0
