P1
# Created by GIMP version 2.10.38 PNM plug-in
128 256
1111111011111110111111101111111011111110111111101111111011101110111011
1011101110111011101110111011101110111011101110111011101110111111111111
1111111111111111111111111111111111111111111111111111111111111111111111
1111111111111111111111111111111111111111111111111111111111111111111111
1111111111111111111111111111111111111111111110111111101111111011111110
1111111011101110111011101010111010111111111111111111111111111111111111
1111111111111111111111111111111111111111111111111111111111111111111111
1111111111111111111111111111111111111111101111111011111110111011101110
1110111011101110111011101110111011101110111011101110111011101110111011
1011101110111111111111111111111111111111111111111111111111111111111111
1111111111111111111111111111111111111111111111111111111111111111111111
1111111111111111111111111111111111111111111111111111111111111111111111
1011111110111011101110111011101110111011101010111010101011111111111111
1111111111111111111111111111111111111111111111111111111111111111111111
1111111111111111111111111111111111111111111111111110111111101111111011
1111101111111011101110111011101110111011101110111011101110111011101110
1110111011101110111011101110111011111111111111111111111111111111111111
1111111111111111111111111111111111111111111111111111111111111111111111
1111111111111111111111111111111111111111111111111111111111111111111111
1110111111101111111011111110111111101110111011101110101011101010111010
1011101011111111111111111111111111111111111111111111111111111111111111
1111111111111111111111111111111111111111111111111111111111111111111110
1111111011111110111011101110111011101110111011101110111011101110111011
1011101110111011101110111011101110111011101110111011101111111111111111
1111111111111111111111111111111111111111111111111111111111111111111111
1111111111111111111111111111111111111111111111111111111111111111111111
1111111111111111111111111111101111111011101110111011101110111011101110
1010111010101010101010101010101111111111111111111111111111111111111111
1111111111111111111111111111111111111111111111111111111111111111111111
1111111111111111111111111011111110111111101110111011101110111011101110
1110111011101110111011101110111011101110111011101110111011101110111011
1010101111111111111111111111111111111111111111111111111111111111111111
1111111111111111111111111111111111111111111111111111111111111111111111
1111111111111111111111111111111011111110111111101111111011111110111011
1010101110101011101010111010101110101010101010101010111111111111111111
1111111111111111111111111111111111111111111111111111111111111111111111
1111111111111111111111111111111111111111111011101110111011101110111011
1011101110111011101110111011101110111011101110111011101110111011101110
1110111011101110111011101110111111111111111111111111111111111111111111
1111111111111111111111111111111111111111111111111111111111111111111111
1111111111111111111111111111111111111111111111111111111110111111101110
1110111011101110111011101110101011101010101010101010101010101010101010
1010111111111111111111111111111111111111111111111111111111111111111111
1111111111111111111111111111111111111111111111111111111111111111111110
1110111011101110111011101110111011101110111011101110111011101110111011
1011101110111011101110111011101010111010101110101011111111111111111111
1111111111111111111111111111111111111111111111111111111111111111111111
1111111111111111111111111111111111111111111111111111111111101111111011
1111101111111011111110111011101010111010101110101011101010111010101010
1010101010101010101010101011111111111111111111111111111111111111111111
1111111111111111111111111111111111111111111111111111111111111111111111
1111111111111111101110111011101110111011101110111011101110111011101110
1110111011101110111011101110111011101110111011101110111010101110101010
1011111111111111111111111111111111111111111111111111111111111111111111
1111111111111111111111111111111111111111111111111111111111111111111111
1111111111111110111111101110111011101110111011101110111010101110101010
1010101010101010101010101010101010101010101010101111111111111111111111
1111111111111111111111111111111111111111111111111111111111111111111111
1111111111111111111111111111111111111110111011101110111011101110111011
1011101110111011101110111011101110111011101110111011101110101011101010
1110101011101010101010101111111111111111111111111111111111111111111111
1111111111111111111111111111111111111111111111111111111111111111111111
1111111111111111101111111011111110111111101111111011101110111011101010
1110101011101010111010101010101010101010101010101010101010101010101010
1111111111111111111111111111111111111111111111111111111111111111111111
1111111111111111111111111111111111111111111111111111111111111011101110
1110111011101110111011101110111011101110111011101110111011101110111011
1011101110111010101110101010101010101010101010111111111111111111111111
1111111111111111111111111111111111111111111111111111111111111111111111
1111111111111111111111111111111111111111111011111110111011101110111011
1011101110111010101110101010101010101010101010101010101010101010101010
1010101010101010101010111111111111111111111111111111111111111111111111
1111111111111111111111111111111111111111111111111111111111111111111111
1111111111111011101110111011101110111011101110111011101110111011101110
1110111011101110101011101010111010101110101010101010101010101010101011
1111111111111111111111111111111111111111111111111111111111111111111111
1111111111111111111111111111111111111111111111011111110111111011111110
1111111011101110101011101010111010101110101011101010101010101010101010
1010101010101010101010101010101010101010101011111111111111111111111111
1111111111111111111111111111111111111111111111111111111111111111111111
1111111111111111111111111111111111101110111011101110111011101110111011
1011101110111011101110111011101110111011101010111010101010101010101010
1010101010101010101011111111111111111111111111111111111111111111111111
1111111111111111111111111111111111111111111111111111111111111111011111
1101110110111011101110111011101110111011101010111010101010101010101010
1010101010101010101010101010101010101010101010101010101010101010101111
1111111111111111111111111111111111111111111111111111111111111111111111
1111111111111111111111111111111111111111111111111111111110111011101110
1110111011101110111011101110111011101110111010101110101011101010111010
1010101010101010101010101010101010101010101111111111111111111111111111
1111111111111111111111111111111111111111111111111111111111111111110111
1111011111110111111101110111011111101110111011101110101011101010111010
1011101010101010101010101010101010101010101010101010101010101010101010
1010101010101010101111111111111111111111111111111111111111111111111111
1111111111111111111111111111111111111111111111111111111111111111111111
1101111110111011101110111011101110111011101110111011101110111011101110
1010101010101010101010101010101010101010101010101010101010101010111111
1111111111111111111111111111111111111111111111111111111111111111111111
1111111111111111111111011111110111011101110111011101101110111011101110
1010111010101010101010101010101010101010101010101010101010101010101010
1010101010101010101010101010101010101010111111111111111111111111111111
1111111111111111111111111111111111111111111111111111111111111111111111
1111111111111111111111111111111011101110111011101110111011101110111011
1010101110101011101010111010101010101010101010101010101010101010101010
1010101010101010111111111111111111111111111111111111111111111111111111
1111111111111111111111111111111101111111011111110111011101110111011101
1101101110101011101010111010101110101010101010101010101010101010101010
1010101010101010101010101010101010101010101010101010101010101011111111
1111111111111111111111111111111111111111111111111111111111111111111111
1111111111111111111111111111111111111101111111011111101110111011101110
1110111011101110111011101110101010101010101010101010101010101010101010
1010101010101010101010101010101010101011111111111111111111111111111111
1111111111111111111111111111111111111111111111111101111111011101110111
0111011101110111011101110110101011101010101010101010101010101010101010
1010101010101010101010101010101010101010101010101010101010101010101010
1010101010101011111111111111111111111111111111111111111111111111111111
1111111111111111111111111111111111111111111111111111111101111111011101
1111101110111011101110111011101010111010101110101011101010101010101010
1010101010101010101010101010101010101010101010101010101010101111111111
1111111111111111111111111111111111111111111111111111011111110111111101
1111110111011101110111011101110111011101110111011011101010111010101010
1010101010101010101010101010101010101010101010101010101010101010101010
1010101010101010101010101010101010101111111111111111111111111111111111
1111111111111111111111111111111111111111111111111111111111011111110111
1111011111110111011101011110111011101110111011101110111010101010101010
1010101010101010101010101010101010101010101010101010101010101010101010
1010101010101111111111111111111111111111111111111111111111111111111111
1111111101111111011101110111011101110111011101110111011101110111011101
1010101010101010101010101010101010101010101010101010101010101010101010
1010101010101010101010101010101010101010101010101010101010111111111111
1111111111111111111111111111111111111111111111111111111111111111111111
1111111111111101111111011101110111011101110111111011101110101011101010
1110101011101010101010101010101010101010101010101010101010101010101010
1010101010101010101010101010101010111111111111111111111111111111111111
1111111111011111110111111101111111011101110111011101110111011101110111
0111011101110111011101101010101010101010101010101010101010101010101010
1010101010101010101010101010101010101010101010101010101010101010101010
1010101010111111111111111111111111111111111111111111111111111111111111
1111111111111111111111110111111101111111011101110111011101010111010111
1011101110111010101110101010101010101010101010101010101010101010101010
1010101010101010101010101010101010101010101010101010101011111111111111
1111111111111111111111111111111111110111111101110111011101110111011101
1101110111011101110111011101110111011101110110101010101010101010101010
1010101010101010101010101010101010101010101010101010101010101010101010
1010101010101010101010101010101011111111111111111111111111111111111111
1111111111111111111111111111111111111111110111111101110111011101110111
0111010101010101010111101010111010101110101010101010101010101010101010
1010101010101010101010101010101010101010101010101010101010101010101010
1010101011111111111111111111111111111101111111011111110111111101110111
0111011101110111011101110111011101110111011101110111011101110111011010
1010101010101010101010101010101010101010101010101010101010101010101010
1010101010101010101010101010101010101010101010101010101111111111111111
1111111111111111111111111111111111111111111101111111011111110111111101
1101110101011101010111010101110101010101011010101010101010101010101010
1010101010101010101010101010101010101010101010101010101010101010101010
1010101010101010101010101010101111111111111111111111111111111111011111
1101110111011101110111011101110111011101110111011101110111011101110111
0111011101110111011010101010101010101010101010101010101010101010101010
1010101010101010101010101010101010101010101010101010101010101010101010
1010101111111111111111111111111111111111111111111111111111111111111111
0111111101110111011101110111011101010111010101010101010101010101111010
1010101010101010101010101010101010101010101010101010101010101010101010
1010101010101010101010101010101010101010101010101010111111111111110111
1111011111110111111101110111011101110111011101110111011101110111011101
1101110111011101110111011101010111010101101010101010101010101010101010
1010101010101010101010101010101010101010101010101010101010101010101010
1010101010101010101010101010111111111111111111111111111111111111111111
1101111111011111110111111101110111010101110101011101010111010101010101
0101010101010101101010101010101010101010101010101010101010101010101010
1010101010101010101010101010101010101010101010101010101010101010101010
1010111111111111111111011111110111011101110111011101110111011101110111
0111011101110111011101110111011101110111011101110111010101010110101010
1010101010101010101010101010101010101010101010101010101010101010101010
1010101010101010101010101010101010101010101010101011111111111111111111
1111111111111111111111111111011101110111011101110111011101110101010101
0101010101010101010101010101010101010110101010101010101010101010101010
1010101010101010101010101010101010101010101010101010101010101010101010
1010101010101010101010101011111101111111011111110111011101110111011101
1101110111011101110111011101110111011101110111011101110101011101010111
0101011101010110101010101010101010101010101010101010101010101010101010
1010101010101010101010101010101010101010101010101010101010101010101010
1011111111111111111111111111110111111101111111011111110111011101010111
0101011101010111010101010101010101010101010101010101010101011010101010
1010101010101010101010101010101010101010101010101010101010101010101010
1010101010101010101010101010101010101010101010101101111111011101110111
0111011101110111011101110111011101110111011101110111011101110111011101
1101110111010101010101010101010101011010101010101010101010101010101010
1010101010101010101010101010101010101010101010101010101010101010101010
1010101010101010101010101111111111111111111111111111111101110111011101
1101110111011101110101010101010101010101010101010101010101010101010101
0101010101011010101010101010101010101010101010101010101010101010101010
1010101010101010101010101010101010101010101010101010101010101010101010
1111110111011101110111011101110111011101110111011101110111011101110111
0111011101110101011101010111010101110101010101010001010100101010101010
1010101010101010101010101010101010101010101010101010101010101010101010
1010101010101010101010101010101010101010101010111111111111011111110111
1111011111110111011101010111010101110101011101010101010101010101010101
0101010101010101010101010101010101101010101010101010101010101010101010
1010101010101010101010101010101010101010101010101010101010101010101010
1010101010101010101010110111011101110111011101110111011101110111011101
1101110111011101110111011101110111011101010101010101010101010101010001
0101000100101010101010101010101010101010101010101010101010101010101010
1010101010101010101010101010101010101010101010101010101010101010101011
1111111111111101110111011101110111011101110111010101010101010101010101
0101010101010101010101010101010101010101010101010101010110101010101010
1010101010101010101010101010101010101010101010101010101010101010101010
1010101010101010101010101010101010101010101011011101110111011101110111
0111011101110111011101110111011101110111010101110101011101010111010101
0101010001010100010101000100010010101010101010101010101010101010101010
1010101010101010101010101010101010101010101010101010101010101010101010
1010101010101010101011110111111101111111011101110101011101010111010101
1101010101010101010101010101010101010101010101010101010101010101010101
0101010110101010101010101010101010101010101010101010101010101010101010
1010101010101010101010101010101010101010101010101010101010101010101101
1101110111011101110111011101110111011101110111011101110111011101110101
0101010101010101010101010001010100010001000100010001001010101010101010
1010101010101010101010101010101010101010101010101010101010101010101010
1010101010101010101010101010101010101010100111011101110111011101110111
0111010101010101010101010101010101010101010101010101010101010101010101
0101010101010101010101010101011010101010101010101010101010101010101010
1010101010101010101010101010101010101010101010101010101010101010101010
1010101010101010101101110111011101110111011101110111011101110111011101
0101110101011101010111010101010101000101010001010100010001000100010001
0001001010101010101010101010101010101010101010101010101010101010101010
1010101010101010101010101010101010101010101010101010101010101010111101
1101110101011101010111010101110101010101010101010101010101010101010101
0101010101010101010101010101010100010101000101010001101010101010101010
1010101010101010101010101010101010101010101010101010101010101010101010
1010101010101010101010101010101010101010110111011101110111011101110111
0111011101110111011101110101010101010101010101010101000101010001000100
0100010001000100010001000100101010101010101010101010101010101010101010
1010101010101010101010101010101010101010101010101010101010101010101010
1010101010101010011101110111011101010101010101010101010101010101010101
0101010101010101010101010101010101010101010101010101010101000100010001
0001101010101010101010101010101010101010101010101010101010101010101010
1010101010101010101010101010101010101010101010101010101010101011011101
1101110111011101110111011101010111010101110101011101010101010100010101
0001010100010001000100010001000100010001000100010010101010101010101010
1010101010101010101010101010101010101010101010101010101010101010101010
1010101010101010101010101010101010101001110101011101010111010101010101
0101010101010101010101010101010101010101010101010101010101010101010100
0101010001010100010001000010101010101010101010101010101010101010101010
1010101010101010101010101010101010101010101010101010101010101010101010
1010101010101011011101110111011101110111011101110111010101010101010101
0101010101000101010001000100010001000100010001000100010001000100010001
0010101010101010101010101010101010101010101010101010101010101010101010
1010101010101010101010101010101010101010101010101010101010100101010101
0101010101010101010101010101010101010101010101010101010101010101010101
0101010101010101000100010001000100010001000100011010101010101010101010
1010101010101010101010101010101010101010101010101010101010101010101010
1010101010101010101010101010101010101101110111011101110101011101010111
0101011101010101010100010101000101010001000100010001000100010001000100
0100010001000100010001001010101010101010101010101010101010101010101010
1010101010101010101010101010101010101010101010101010101010101010101010
1010101010100111010101010101010101010101010101010101010101010101010101
0101010101010101010101010100010101000101010001000100000001000000010000
1010101010101010101010101010101010101010101010101010101010101010101010
1010101010101010101010101010101010101010101010101010101010110111011101
1101110111010101010101010101010101010100010101000100010001000100010001
0001000100010001000100010001000100010001000100101010101010101010101010
1010101010101010101010101010101010101010101010101010101010101010101010
1010101010101010101010101010101010010101010101010101010101010101010101
0101010101010101010101010101010101010101010100010101000100010001000100
0100010000000100000000101010101010101010101010101010101010101010101010
1010101010101010101010101010101010101010101010101010101010101010101010
1010101010110101011101010111010101110101010101010001010100010101000100
0100010001000100010001000100010001000100010001000100010001000100010010
1010101010101010101010101010101010101010101010101010101010101010101010
1010101010101010101010101010101010101010101010101010101001010101010101
0101010101010101010101010101010101010101010101000101010001010100010101
0001000100000001000000010000000100000000000010101010101010101010101010
1010101010101010101010101010101010101010101010101010101010101010101010
1010101010101010101010101010101001011101010101010101010101010101010001
0101000100010001000100010001000100010001000100010001000100010001000100
0100010001000100010010101010101010101010101010101010101010101010101010
1010101010101010101010101010101010101010101010101010101010101010101010
1010101001010101010101010101010101010101010101010101010101010101010101
0100010101000100010001000100010001000000000000000000000000000000001010
1010101010101010101010101010101010101010101010101010101010101010101010
1010101010101010101010101010101010101010101010101010101101010101010101
0101010001010100010101000100010001000100010001000100010001000100010001
0001000100010001000100010001000000010000001010101010101010101010101010
1010101010101010101010101010101010101010101010101010101010101010101010
1010101010101010101010101010100101010101010101010101010101010101010101
0101000101010001010100010101000100010000000100000001000000010000000000
0000000000000000001010101010101010101010101010101010101010101010101010
1010101010101010101010101010101010101010101010101010101010101010101010
1010100101010101010101010001010100010001000100010001000100010001000100
0100010001000100010001000100010001000100010001000100010000000000101010
1010101010101010101010101010101010101010101010101010101010101010101010
1010101010101010101010101010101010101010101010101010010101010101010101
0101010101010101010101010101010001000100010001000100010001000100000000
0000000000000000000000000000000000000000101010101010101010101010101010
1010101010101010101010101010101010101010101010101010101010101010101010
1010101010101010101010101010010101000101010001010100010001000100010001
0001000100010001000100010001000100010001000100010001000100000001000000
0100000001000000101010101010101010101010101010101010101010101010101010
1010101010101010101010101010101010101010101010101010101010101010101010
1010010101010101010101010101010100010101000101010001010100010001000000
0100000001000000010000000000000000000000000000000000000000000010101010
1010101010101010101010101010101010101010101010101010101010101010101010
1010101010101010101010101010101010101010101010101001000101010001000100
0100010001000100010001000100010001000100010001000100010001000100010001
0001000100010000000000000000000000000010101010101010101010101010101010
1010101010101010101010101010101010101010101010101010101010101010101010
1010101010101010101010101001010101010101010101010101010101000100010001
0001000100010001000100000000000000000000000000000000000000000000000000
0000000000000010101010101010101010101010101010101010101010101010101010
1010101010101010101010101010101010101010101010101010101010101010101010
0001010100010001000100010001000100010001000100010001000100010001000100
0100010001000100000001000000010000000100000000000000000000001010101010
1010101010101010101010101010101010101010101010101010101010101010101010
1010101010101010101010101010101010101010101010100101010101010001010100
0101010001010100010001000000010000000100000001000000000000000000000000
0000000000000000000000000000000000001010101010101010101010101010101010
1010101010101010101010101010101010101010101010101010101010101010101010
1010101010101010100010100100010001000100010001000100010001000100010001
0001000100010001000100010001000100010001000000000000000000000000000000
0000000000001010101010101010101010101010101010101010101010101010101010
1010101010101010101010101010101010101010101010101010101010101010101010
0101010101010101000100010001000100010001000100010000000000000000000000
0000000000000000000000000000000000000000000000000000000000101010101010
1010101010101010101010101010101010101010101010101010101010101010101010
1010101010101010101010101010001010100010101000010001000100010001000100
0100010001000100010001000100010001000100010000000100000001000000010000
0000000000000000000000000000000000101010101010101010101010101010101010
1010101010101010101010101010101010101010101010101010101010101010101010
1010101010101010101010010100010101000101010001000100000001000000010000
0001000000000000000000000000000000000000000000000000000000000000000000
0000000000101010101010101010101010101010101010101010101010101010101010
1010101010101010101010101010101010101010101010001010100010001000100001
0001000100010001000100010001000100010001000100010001000100010001000100
0000000000000000000000000000000000000000000000000000000010101010101010
1010101010101010101010101010101010101010101010101010101010101010101010
1010101010101010101010101010101010101010101000010001000100010001000100
0100010000000000000000000000000000000000000000000000000000000000000000
0000000000000000000000000000000010101010101010101010101010101010101010
1010101010101010101010101010101010101010101010101010101000101010001010
1000101010001000100001000100010001000100010001000100010001000100010001
0000000100000001000000010000000000000000000000000000000000000000000000
0000000010101010101010101010101010101010101010101010101010101010101010
1010101010101010101010101010101010101010101010101010101010101000100101
0001000100000001000000010000000100000000000000000000000000000000000000
0000000000000000000000000000000000000000000000000000001010101010101010
1010101010101010101010101010101010101010101010101010101010101010101010
1010001010100010001000100010001000100010000100010001000100010001000100
0100010001000100010001000100000000000000000000000000000000000000000000
0000000000000000000000000000001010101010101010101010101010101010101010
1010101010101010101010101010101010101010101010101010101010101010101010
1010101010101010100001000100010001000000000000000000000000000000000000
0000000000000000000000000000000000000000000000000000000000000000000000
0000001010101010101010101010101010101010101010101010101010101010101010
1010101010101000101010001010100010101000100010001000100010001000010001
0001000100010001000100010001000000010000000100000001000000000000000000
0000000000000000000000000000000000000000000000000000101010101010101010
1010101010101010101010101010101010101010101010101010101010101010101010
1010101010101010101000101010001010100010000100000001000000010000000000
0000000000000000000000000000000000000000000000000000000000000000000000
0000000000000000000000000000101010101010101010101010101010101010101010
1010101010101010101010101010101000101010001000100010001000100010001000
1000100010001000010001000100010001000100010001000100010000000000000000
0000000000000000000000000000000000000000000000000000000000000000000000
0000101010101010101010101010101010101010101010101010101010101010101010
1010101010101010101010101010101010101010101010001010100010001000000000
0000000000000000000000000000000000000000000000000000000000000000000000
0000000000000000000000000000000000000000000000000010101010101010101010
1010101010101010101010101010101010101010100010101000101010001010100010
0010001000100010001000100010001000100001000100010001000100000001000000
0100000001000000000000000000000000000000000000000000000000000000000000
0000000000000000000000000010101010101010101010101010101010101010101010
1010101010101010101010101010101010101010101010100010101000101010001010
1000100010001000010000000000000000000000000000000000000000000000000000
0000000000000000000000000000000000000000000000000000000000000000000000
0010101010101010101010101010101010101010101010101010101010100010101000
1000100010001000100010001000100010001000100010001000100010000100010001
0001000100010000000000000000000000000000000000000000000000000000000000
0000000000000000000000000000000000000000000000001010101010101010101010
1010101010101010101010101010101010101010101010101010101010101010101010
1010001010100010001000100010001000100000000000000000000000000000000000
0000000000000000000000000000000000000000000000000000000000000000000000
0000000000000000000000001010101010101010101010101010101010101010101010
0010101000101010001010100010001000100010001000100010001000100010001000
1000100010000100000001000000010000000100000000000000000000000000000000
0000000000000000000000000000000000000000000000000000000000000000000000
1010101010101010101010101010101010101010101010101010101010101010101010
1010100010101000101010001010100010001000100010000000100000000000000000
0000000000000000000000000000000000000000000000000000000000000000000000
0000000000000000000000000000000000000000000000101010101010101010101010
1010101010101010100010101000100010001000100010001000100010001000100010
0010001000100010001000100010001000010001000000000000000000000000000000
0000000000000000000000000000000000000000000000000000000000000000000000
0000000000000000000000101010101010101010101010101010101010101010101010
1010101010101010101010101010101000101010001000100010001000100010001000
1000000010000000000000000000000000000000000000000000000000000000000000
0000000000000000000000000000000000000000000000000000000000000000000010
1010101010101010101010101010001010100010101000101010001000100010001000
1000100010001000100010001000100010001000100010001000100001000000010000
0000000000000000000000000000000000000000000000000000000000000000000000
0000000000000000000000000000000000000000000010101010101010101010101010
1010101010101010101010101010101010001010100010101000101010001000100010
0010000000100000001000000010000000000000000000000000000000000000000000
0000000000000000000000000000000000000000000000000000000000000000000000
0000000000000000000010101010101010101010101010001010100010001000100010
0010001000100010001000100010001000100010001000100010001000100010001000
1000100000000000000000000000000000000000000000000000000000000000000000
0000000000000000000000000000000000000000000000000000000000000000001010
1010101010101010101010101010101010101010101010101010101010100010001000
1000100010001000100010001000100000001000000000000000000000000000000000
0000000000000000000000000000000000000000000000000000000000000000000000
0000000000000000000000000000000000000000001010100010101000101010001010
1000101010001000100010001000100010001000100010001000100010001000100010
0010001000100010001000100010000000000000000000000000000000000000000000
0000000000000000000000000000000000000000000000000000000000000000000000
0000000000000000001010101010101010101010101010101010101010101000101010
0010101000101010001010100010001000000010000000100000001000000010000000
0000000000000000000000000000000000000000000000000000000000000000000000
0000000000000000000000000000000000000000000000000000000000000000101010
1010001010100010001000100010001000100010001000100010001000100010001000
1000100010001000100010001000100010001000100010001000000000000000000000
0000000000000000000000000000000000000000000000000000000000000000000000
0000000000000000000000000000000000000000101010101010101010101010101010
1010101010101010100010101000100010001000100010001000100010000000100000
0000000000000000000000000000000000000000000000000000000000000000000000
0000000000000000000000000000000000000000000000000000000000000000000000
0000000000000000101010001010100010101000100010001000100010001000100010
0010001000100010001000100010001000100010001000100010001000100010001000
0000000000000000000000000000000000000000000000000000000000000000000000
0000000000000000000000000000000000000000000000000000000000000010101010
1010101010101010101000101010001010100010101000100010001000100000001000
0000100000001000000010000000000000000000000000000000000000000000000000
0000000000000000000000000000000000000000000000000000000000000000000000
0000000000000000000000000000000000000010001000100010001000100010001000
1000100010001000100010001000100010001000100010001000100010001000100010
0010001000100010001000100000000000000000000000000000000000000000000000
0000000000000000000000000000000000000000000000000000000000000000000000
0000000000000010101010101010101010101010101010001010100010001000100010
0010001000100010000000100000000000000000000000000000000000000000000000
0000000000000000000000000000000000000000000000000000000000000000000000
0000000000000000000000000000000000000000000000000000000000001010100010
0010001000100010001000100010001000100010001000100010001000100010001000
1000100010001000100010001000000010000000100000000000000000000000000000
0000000000000000000000000000000000000000000000000000000000000000000000
0000000000000000000000000000000000001010101010100010101000101010001010
1000100010001000100000001000000010000000100000001000000000000000000000
0000000000000000000000000000000000000000000000000000000000000000000000
0000000000000000000000000000000000000000000000000000000000000000000000
0000000000001000100010001000100010001000100010001000100010001000100010
0010001000100010001000100010001000100010001000100010000000100000000000
0000000000000000000000000000000000000000000000000000000000000000000000
0000000000000000000000000000000000000000000000000000000000101010101010
1010001010100010001000100010001000100010001000000010000000000000000000
0000000000000000000000000000000000000000000000000000000000000000000000
0000000000000000000000000000000000000000000000000000000000000000000000
0000000000000000000000000000000000100010001000100010001000100010001000
1000100010001000100010001000100010001000100010001000100000001000000010
0000001000000010000000000000000000000000000000000000000000000000000000
0000000000000000000000000000000000000000000000000000000000000000000000
0000000000101000101010001010100010001000100010000000100000001000000010
0000001000000000000000000000000000000000000000000000000000000000000000
0000000000000000000000000000000000000000000000000000000000000000000000
0000000000000000000000000000000000000000000000000000000010001000100010
0010001000100010001000100010001000100010001000100010001000100010001000
1000100010000000100000001000000000000000000000000000000000000000000000
0000000000000000000000000000000000000000000000000000000000000000000000
0000000000000000000000000000000000101010001000100010001000100010001000
1000000010000000000000000000000000000000000000000000000000000000000000
0000000000000000000000000000000000000000000000000000000000000000000000
0000000000000000000000000000000000000000000000000000000000000000000000
00000000